<svg xmlns="http://www.w3.org/2000/svg" xmlns:xlink="http://www.w3.org/1999/xlink" width="1920" zoomAndPan="magnify" viewBox="0 0 1440 1439.999935" height="1920" preserveAspectRatio="xMidYMid meet" version="1.0"><defs><clipPath id="858751dd5e"><path d="M 11 22.253906 L 1429 22.253906 L 1429 1418 L 11 1418 Z M 11 22.253906 " clip-rule="nonzero"/></clipPath></defs><rect x="-144" width="1728" fill="#ffffff" y="-143.999994" height="1727.999922" fill-opacity="1"/><rect x="-144" width="1728" fill="#ffffff" y="-143.999994" height="1727.999922" fill-opacity="1"/><g clip-path="url(#858751dd5e)"><path fill="#254aa0" d="M 720.015625 22.265625 L 386.757812 355.523438 L 428.425781 397.191406 L 720.03125 105.597656 L 1011.605469 397.175781 L 1053.257812 355.523438 Z M 720.015625 147.234375 L 699.183594 168.070312 L 449.242188 418.007812 L 490.894531 459.660156 L 720.015625 230.539062 L 949.136719 459.660156 L 990.789062 418.007812 Z M 720.015625 272.203125 L 699.183594 293.039062 L 511.726562 480.492188 L 553.378906 522.144531 L 720.015625 355.507812 L 886.652344 522.144531 L 928.304688 480.492188 Z M 365.921875 376.339844 L 345.105469 397.175781 L 32.679688 709.585938 L 74.363281 751.265625 L 365.953125 459.675781 L 657.53125 751.25 L 699.183594 709.601562 Z M 1074.074219 376.339844 L 1053.242188 397.175781 L 740.832031 709.570312 L 782.5 751.25 L 1074.09375 459.660156 L 1365.683594 751.25 L 1407.335938 709.601562 Z M 365.9375 501.3125 L 345.105469 522.144531 L 95.179688 772.085938 L 136.832031 813.738281 L 365.9375 584.613281 L 595.046875 813.722656 L 636.695312 772.070312 Z M 1074.074219 501.3125 L 803.316406 772.070312 L 844.96875 813.722656 L 1074.074219 584.613281 L 1303.199219 813.738281 L 1344.851562 772.085938 Z M 365.9375 626.28125 L 345.105469 647.113281 L 157.667969 834.570312 L 199.316406 876.222656 L 365.9375 709.585938 L 532.558594 876.222656 L 574.210938 834.570312 Z M 1074.074219 626.28125 L 1053.242188 647.097656 L 865.804688 834.554688 L 907.453125 876.207031 L 1074.074219 709.585938 L 1240.714844 876.222656 L 1282.363281 834.570312 Z M 11.863281 730.417969 C 11.894531 758.191406 11.816406 785.980469 11.863281 813.753906 L 365.921875 1167.8125 L 705.285156 828.46875 L 705.285156 745.148438 L 678.363281 772.085938 L 365.9375 1084.496094 L 261.800781 980.359375 L 53.53125 772.085938 Z M 1428.152344 730.433594 L 1199.0625 959.523438 L 1199.046875 959.523438 L 1074.074219 1084.496094 L 949.121094 959.523438 L 761.667969 772.070312 L 734.714844 745.132812 L 734.714844 828.453125 L 1074.074219 1167.8125 L 1428.152344 813.722656 Z M 11.863281 855.386719 L 11.863281 938.722656 L 365.921875 1292.78125 L 705.285156 953.4375 L 705.285156 870.136719 L 365.9375 1209.464844 Z M 1428.152344 855.386719 L 1074.074219 1209.464844 L 734.730469 870.105469 L 734.730469 953.4375 L 1074.074219 1292.765625 L 1428.152344 938.691406 Z M 11.863281 980.359375 L 11.863281 1063.691406 L 365.921875 1417.753906 L 705.285156 1078.410156 L 705.285156 995.089844 L 365.9375 1334.433594 Z M 1428.152344 980.359375 L 1074.074219 1334.417969 L 734.730469 995.074219 L 734.730469 1078.394531 L 1074.074219 1417.738281 L 1428.152344 1063.660156 Z M 1428.152344 980.359375 " fill-opacity="1" fill-rule="nonzero"/></g></svg>